<svg width="28" height="32" viewBox="0 0 28 32" fill="none" xmlns="http://www.w3.org/2000/svg">
<path d="M16.2327 0.00169048C14.1254 -0.0289434 12.0327 0.357043 10.075 1.13748C7.12642 2.31298 4.59409 4.33895 2.80017 6.95767C1.00624 9.5764 0.0317894 12.6695 0.000763756 15.8436C-0.0302442 19.0177 0.883562 22.1292 2.62595 24.7825C4.36833 27.4358 6.86054 29.5108 9.78558 30.7437C12.7106 31.9766 15.9362 32.3117 19.0522 31.7063C21.7213 31.1877 24.2065 29.9991 26.279 28.2619C26.8553 27.7788 26.8542 26.9115 26.3238 26.3783V26.3783C25.7956 25.8472 24.9416 25.8488 24.3568 26.3168C22.675 27.663 20.6851 28.5842 18.5561 28.9917C15.9822 29.4845 13.3201 29.2045 10.905 28.1872C8.47774 27.1641 6.40964 25.4421 4.96377 23.2403C3.5179 21.0386 2.75961 18.4565 2.78535 15.8226C2.8111 13.1886 3.61972 10.6219 5.10835 8.44877C6.59699 6.27567 8.69836 4.59446 11.1452 3.61897C13.5906 2.64411 16.2707 2.4182 18.8448 2.96994C20.9865 3.42899 22.9744 4.40913 24.6365 5.81488C25.1942 6.28657 26.0275 6.30625 26.5526 5.79856V5.79856C27.078 5.29063 27.0955 4.44829 26.5459 3.96667C25.2972 2.8724 23.8836 1.97734 22.3549 1.31583C20.4206 0.478859 18.3401 0.0322609 16.2327 0.00169048Z" fill="url(#paint0_linear_311_53)"/>
<path d="M16.1998 4.0742C14.6259 4.05134 13.063 4.33965 11.6009 4.92257C9.39868 5.80049 7.5074 7.31359 6.1676 9.2694C4.8278 11.2252 4.10003 13.5353 4.07687 15.9059C4.05369 18.2765 4.73616 20.6004 6.03746 22.582C7.33877 24.5636 9.20009 26.1134 11.3847 27.0342C13.5693 27.955 15.9784 28.2053 18.3056 27.7531C19.975 27.4287 21.5481 26.7534 22.9245 25.7804C23.8265 25.1428 23.8222 23.86 23.0432 23.0769L17.4569 17.4609C16.6701 16.6699 16.6826 15.388 17.4848 14.6126L23.1797 9.10712C23.9738 8.33939 24.0032 7.05699 23.1139 6.40184C22.3884 5.86737 21.6031 5.4154 20.7722 5.05581C19.3276 4.43067 17.7737 4.09708 16.1998 4.0742ZM15.1292 8.601C16.0422 8.60124 17.0543 9.66004 17.0475 10.5563C17.0356 12.1324 15.7374 14.7442 15.1292 14.7618C14.604 14.7771 13.0414 12.1132 13.1002 10.6669C13.146 9.54138 14.164 8.60076 15.1292 8.601ZM9.30262 14.1117C10.8787 14.1236 13.4905 15.4218 13.5082 16.03C13.5234 16.5552 10.8595 18.118 9.41329 18.0592C8.28774 18.0134 7.34711 16.9952 7.34736 16.03C7.34759 15.117 8.4064 14.105 9.30262 14.1117ZM15.0172 17.3072C15.5423 17.2919 17.105 19.9558 17.0462 21.4021C17.0004 22.5276 15.9824 23.4682 15.0172 23.468C14.1041 23.4677 13.0919 22.4089 13.0987 21.5127C13.1106 19.9366 14.409 17.3248 15.0172 17.3072Z" fill="url(#paint1_linear_311_53)"/>
<defs>
<linearGradient id="paint0_linear_311_53" x1="10.944" y1="11.0968" x2="22.2419" y2="30.7104" gradientUnits="userSpaceOnUse">
<stop stop-color="#059B05"/>
<stop offset="1" stop-color="#5CCB5F"/>
</linearGradient>
<linearGradient id="paint1_linear_311_53" x1="12.2498" y1="12.3607" x2="20.6878" y2="27.0092" gradientUnits="userSpaceOnUse">
<stop stop-color="#059B05"/>
<stop offset="1" stop-color="#5CCB5F"/>
</linearGradient>
</defs>
</svg>
